<?xml version="1.0" encoding="UTF-8" standalone="no"?><!DOCTYPE svg PUBLIC "-//W3C//DTD SVG 1.1//EN" "http://www.w3.org/Graphics/SVG/1.1/DTD/svg11.dtd"><svg width="100%" height="100%" viewBox="0 0 3932 997" version="1.1" xmlns="http://www.w3.org/2000/svg" xmlns:xlink="http://www.w3.org/1999/xlink" xml:space="preserve" xmlns:serif="http://www.serif.com/" style="fill-rule:evenodd;clip-rule:evenodd;stroke-linejoin:round;stroke-miterlimit:2;"><path d="M352.667,996.845c-66.354,0 -126.338,-14.949 -179.901,-44.848c-53.563,-29.899 -95.743,-70.839 -126.559,-122.822c-30.799,-51.983 -46.207,-110.139 -46.207,-174.465c0,-65.233 15.459,-123.671 46.377,-175.314c30.918,-51.643 73.217,-92.471 126.899,-122.482c50.98,-28.497 107.771,-43.465 170.388,-44.904c1.563,-0.09 3.143,-0.136 4.74,-0.136c1.597,0 3.194,0.007 4.774,0.022l0.595,0c26.28,0 51.541,2.462 75.783,7.388c25.227,4.991 49.248,12.644 72.419,23.375c38.715,17.572 72.827,42.002 102.352,73.289c0.747,0.834 1.495,1.651 2.208,2.455c0.9,0.958 1.784,1.923 2.65,2.895l-0.017,0.027c21.235,23.78 27.35,33.235 38.851,48.047c4.977,-8.594 10.261,-16.871 15.833,-24.833c22.798,-33.213 47.277,-57.616 81.457,-80.565c3.109,-2.118 6.269,-4.189 9.462,-6.211c47.685,-30.126 101.417,-45.188 161.214,-45.188l0.085,0c47.107,0 89.237,9.625 126.389,28.879c24.564,12.737 45.952,28.648 64.129,47.732l0,-63.021l177.098,0l0,656.409l-177.098,0l0,-62.25c-17.956,18.741 -39.157,34.395 -63.619,46.961c-27.537,14.139 -57.657,23.086 -90.375,26.841c-4.842,0.882 -9.836,1.342 -14.932,1.342c-7.084,0.464 -14.287,0.697 -21.592,0.697l-0.085,0l-1.053,-0.002c-36.065,-0.1 -70.177,-4.994 -101.57,-16.672c-20.453,-7.114 -39.989,-16.507 -58.591,-28.174c-20.589,-12.914 -39.31,-27.835 -56.128,-44.763c-108.875,-108.69 -121.48,-277.798 -204.601,-369.091l-0.034,0.031c-0.476,-0.542 -0.951,-1.08 -1.427,-1.616c-10.006,-10.772 -21.031,-20.428 -33.347,-28.733c-8.404,-5.466 -17.292,-10.149 -26.552,-13.989c-23.647,-9.844 -49.944,-14.771 -78.908,-14.779l-0.085,0c-33.262,0.01 -62.804,7.485 -88.591,22.424c-25.821,14.949 -46.037,35.447 -60.647,61.496c-14.61,26.047 -21.914,56.625 -21.914,91.734c0,34.428 7.305,64.893 21.914,91.394c14.61,26.501 34.876,47.282 60.816,62.345c25.906,15.051 55.38,22.582 88.422,22.594l0.085,0c0.561,0 1.138,-0.003 1.699,-0.007c18.398,-0.134 36.286,-2.426 52.475,-6.539c10.128,-2.608 20.008,-6.1 29.525,-10.436c19.213,-8.958 37.475,-21.474 55.805,-41.376c0.815,-0.922 1.631,-1.857 2.429,-2.8l0.051,0.059c4.672,-5.256 9.377,-11.005 14.083,-17.312c3.364,8.326 6.778,16.68 10.295,25.028c19.094,45.291 40.975,90.017 69.531,130.993c-2.88,2.452 -5.796,4.861 -8.749,7.225c-17.667,15.96 -44.066,34.664 -79.384,50.732c-1.75,0.824 -3.499,1.614 -5.232,2.371c-43.608,19.026 -91.462,28.54 -143.547,28.54l-0.085,0m596.612,-165.122l0.085,0c49.791,-0.017 89.967,-16.609 120.529,-49.774c30.578,-33.184 45.867,-75.71 45.867,-127.579c0,-34.883 -6.914,-65.631 -20.725,-92.244c-13.811,-26.615 -33.177,-47.454 -58.098,-62.515c-24.887,-15.051 -53.97,-22.584 -87.232,-22.594l-0.085,0c-32.583,0.012 -61.326,7.543 -86.213,22.594c-24.921,15.061 -44.576,35.956 -58.948,62.685c-14.389,26.727 -21.575,57.419 -21.575,92.074c0,34.655 7.135,65.345 21.405,92.074c14.27,26.727 33.908,47.622 58.948,62.685c21.49,12.938 45.714,20.319 72.64,22.144c2.565,0 5.096,0.124 7.594,0.365c1.937,0.056 3.856,0.083 5.81,0.085m613.26,91.646l0,59.206l-177.013,0l0,-982.575l178.712,0l0,382.693c17.158,-16.227 36.864,-29.973 59.118,-41.238c38.053,-19.254 80.42,-28.879 127.069,-28.879c60.714,0 115.075,15.061 163.083,45.188c48.025,30.124 85.856,70.951 113.479,122.482c27.639,51.529 41.45,109.911 41.45,175.144c0,64.554 -13.811,122.538 -41.45,173.955c-27.622,51.415 -65.454,92.074 -113.479,121.973c-48.008,29.899 -102.369,44.848 -163.083,44.848c-47.328,0 -90.035,-9.911 -128.088,-29.729c-22.628,-11.791 -42.571,-26.148 -59.797,-43.068m157.307,-91.646c32.617,0 61.394,-7.532 86.298,-22.594c24.921,-15.063 44.508,-35.958 58.778,-62.685c14.27,-26.729 21.405,-57.419 21.405,-92.074c0,-34.655 -7.135,-65.347 -21.405,-92.074c-14.27,-26.729 -33.925,-47.624 -58.948,-62.685c-25.023,-15.063 -53.851,-22.594 -86.468,-22.594c-32.617,0 -61.547,7.531 -86.808,22.594c-25.261,15.061 -44.797,35.9 -58.608,62.515c-13.811,26.613 -20.725,57.361 -20.725,92.244c0,34.881 6.965,65.685 20.895,92.414c13.93,26.727 33.534,47.566 58.778,62.515c25.261,14.949 54.191,22.424 86.808,22.424m588.458,-225.258l0,376.11l-178.712,0l0,-656.409l178.712,0l0,61.946c16.291,-16.694 35.046,-30.945 56.298,-42.75c39.344,-21.858 83.903,-32.786 133.694,-32.786c48.432,0 91.615,12.004 129.549,36.014c37.934,24.009 67.781,55.38 89.526,94.113c21.744,38.732 32.617,80.069 32.617,124.011l0,415.862l-178.712,0l0,-376.11c0,-39.186 -12.231,-71.067 -36.694,-95.641c-24.462,-24.576 -55.737,-36.864 -93.858,-36.864c-25.94,0 -48.874,5.548 -68.835,16.648c-19.961,11.098 -35.555,26.671 -46.767,46.716c-11.212,20.046 -16.818,43.091 -16.818,69.14m666.415,110.626c3.635,13.655 8.511,26.44 14.627,38.357c15.068,29.331 36.524,51.869 64.384,67.612c27.86,15.741 60.477,23.613 97.85,23.613c33.075,0 63.314,-5.72 90.715,-17.158c27.401,-11.44 51.082,-28.483 71.009,-51.133l104.645,105.324c-32.158,37.373 -71.111,65.573 -116.876,84.599c-45.748,19.026 -95.234,28.54 -148.474,28.54c-68.393,0 -129.498,-14.723 -183.299,-44.168c-53.8,-29.447 -96.202,-70.16 -127.239,-122.142c-31.037,-51.983 -46.547,-110.705 -46.547,-176.164c0,-65.233 15.238,-123.615 45.697,-175.144c30.476,-51.531 71.926,-92.302 124.351,-122.312c52.441,-30.012 110.93,-45.018 175.484,-45.018c62.974,0 118.643,14.1 166.99,42.3c48.364,28.2 86.366,66.988 113.988,116.367c27.639,49.377 41.45,105.664 41.45,168.859c0,11.552 -0.68,23.443 -2.039,35.674c-1.359,12.231 -3.618,25.934 -6.795,41.111l-479.923,0.885m0.153,-132.529l317.825,-0.69c-3.415,-15.926 -8.154,-30.31 -14.219,-43.151c-12.333,-26.161 -30.017,-46.151 -53.002,-59.967c-22.985,-13.818 -51.354,-20.725 -85.109,-20.725c-35.335,0 -66.032,7.814 -92.074,23.443c-26.042,15.629 -46.156,37.655 -60.307,66.083c-5.402,10.852 -9.768,22.521 -13.115,35.007m625.525,-102.109l-152.89,0l0,-156.288l152.89,0l0,-272.485l178.712,0l0,272.485l152.89,0l0,156.288l-152.89,0l0,500.121l-178.712,0l0,-500.121Z" style="fill:#ff006c;fill-rule:nonzero;"/></svg>