<?xml version="1.0" encoding="UTF-8" standalone="no"?><!DOCTYPE svg PUBLIC "-//W3C//DTD SVG 1.1//EN" "http://www.w3.org/Graphics/SVG/1.1/DTD/svg11.dtd"><svg width="100%" height="100%" viewBox="0 0 5349 2852" version="1.1" xmlns="http://www.w3.org/2000/svg" xmlns:xlink="http://www.w3.org/1999/xlink" xml:space="preserve" xmlns:serif="http://www.serif.com/" style="fill-rule:evenodd;clip-rule:evenodd;stroke-linejoin:round;stroke-miterlimit:2;"><path d="M1469.446,2854.045c-276.477,0 -526.41,-62.289 -749.587,-186.866c-223.177,-124.577 -398.931,-295.163 -527.33,-511.758c-128.329,-216.595 -192.529,-458.912 -192.529,-726.937c0,-271.805 64.412,-515.297 193.236,-730.476c128.824,-215.179 305.073,-385.298 528.746,-510.342c212.418,-118.738 449.045,-181.104 709.949,-187.1c6.512,-0.375 13.095,-0.566 19.748,-0.566c6.654,0 13.307,0.028 19.89,0.092l2.477,0c109.501,0 214.754,10.256 315.761,30.783c105.112,20.796 205.199,52.683 301.746,97.397c161.313,73.217 303.445,175.01 426.465,305.37c3.114,3.475 6.229,6.88 9.202,10.228c3.751,3.992 7.432,8.013 11.042,12.061l-0.071,0.113c88.478,99.081 113.96,138.479 161.88,200.194c20.739,-35.809 42.753,-70.294 65.969,-103.47c94.99,-138.387 196.988,-240.066 339.402,-335.686c12.953,-8.827 26.119,-17.455 39.426,-25.878c198.687,-125.526 422.572,-188.282 671.727,-188.282l0.354,0c196.28,0 371.821,40.105 526.622,120.33c102.352,53.073 191.467,119.368 267.204,198.885l0,-262.589l737.908,0l0,2735.038l-737.908,0l0,-259.376c-74.817,78.087 -163.154,143.313 -265.081,195.671c-114.739,58.912 -240.236,96.194 -376.563,111.836c-20.173,3.674 -40.983,5.592 -62.218,5.592c-29.516,1.932 -59.528,2.902 -89.965,2.902l-0.354,0l-4.389,-0.007c-150.271,-0.418 -292.403,-20.81 -423.209,-69.466c-85.222,-29.644 -166.622,-68.779 -244.129,-117.393c-85.788,-53.809 -163.791,-115.977 -233.866,-186.512c-453.645,-452.874 -506.166,-1157.493 -852.505,-1537.879l-0.142,0.127c-1.982,-2.258 -3.964,-4.502 -5.946,-6.731c-41.691,-44.883 -87.629,-85.116 -138.946,-119.722c-35.016,-22.774 -72.049,-42.286 -110.633,-58.289c-98.529,-41.018 -208.101,-61.545 -328.785,-61.581l-0.354,0c-138.592,0.042 -261.683,31.187 -369.131,93.433c-107.59,62.289 -191.821,147.695 -252.694,256.233c-60.873,108.531 -91.31,235.94 -91.31,382.226c0,143.448 30.437,270.389 91.31,380.81c60.873,110.421 145.317,197.009 253.402,259.772c107.943,62.713 230.751,94.091 368.423,94.141l0.354,0c2.336,0 4.742,-0.014 7.078,-0.028c76.658,-0.559 151.192,-10.108 218.647,-27.244c42.2,-10.866 83.365,-25.416 123.02,-43.482c80.055,-37.324 156.146,-89.476 232.521,-172.398c3.398,-3.843 6.795,-7.737 10.122,-11.665l0.212,0.248c19.465,-21.9 39.072,-45.853 58.679,-72.135c14.015,34.691 28.242,69.501 42.894,104.284c79.56,188.713 170.728,375.07 289.713,545.804c-11.998,10.218 -24.151,20.254 -36.453,30.104c-73.614,66.5 -183.61,144.432 -330.767,211.385c-7.291,3.433 -14.581,6.724 -21.801,9.881c-181.699,79.276 -381.093,118.915 -598.113,118.915l-0.354,0m2485.884,-688.007l0.354,0c207.464,-0.071 374.864,-69.204 502.202,-207.393c127.409,-138.267 191.113,-315.457 191.113,-531.577c0,-145.345 -28.809,-273.461 -86.355,-384.349c-57.546,-110.895 -138.238,-197.724 -242.076,-260.48c-103.696,-62.713 -224.876,-94.098 -363.468,-94.141l-0.354,0c-135.761,0.05 -255.525,31.427 -359.222,94.141c-103.838,62.756 -185.733,149.818 -245.616,261.188c-59.953,111.362 -89.894,239.245 -89.894,383.642c0,144.396 29.729,272.272 89.186,383.642c59.457,111.362 141.282,198.425 245.616,261.188c89.54,53.908 190.476,84.663 302.666,92.265c10.688,0 21.235,0.517 31.64,1.522c8.069,0.234 16.068,0.347 24.208,0.354" style="fill:#ff006c;fill-rule:nonzero;"/></svg>